<svg width="61" height="61" viewBox="0 0 61 61" fill="none" xmlns="http://www.w3.org/2000/svg">
<g clip-path="url(#clip0)">
<path d="M33.9349 1.13653C33.9339 1.13653 33.9339 1.13653 33.9339 1.13653C31.8806 -0.378843 29.1199 -0.378843 27.0664 1.13653C17.8766 7.92765 12.3905 18.9046 12.3905 30.4996C12.3905 42.0945 17.8766 53.0714 27.0673 59.8626C28.0939 60.6202 29.2965 61 30.5 61C31.7035 61 32.907 60.6202 33.9346 59.8626C43.1235 53.0714 48.6097 42.0945 48.6097 30.4996C48.6097 18.9046 43.1237 7.92765 33.9349 1.13653Z" fill="#996459"/>
<path d="M30.4742 0.00335693C29.2794 0.00871835 28.0857 0.385566 27.0664 1.13783C17.8766 7.92895 12.3905 18.9059 12.3905 30.5009C12.3905 42.0958 17.8766 53.0728 27.0673 59.8639C28.0865 60.616 29.2792 60.9938 30.474 60.9993V0.00335693H30.4742Z" fill="#7E5C62"/>
<path d="M30.5003 41.9372C29.9734 41.9372 29.5471 41.511 29.5471 40.9841V20.015C29.5471 19.4882 29.9734 19.0619 30.5003 19.0619C31.0271 19.0619 31.4534 19.4882 31.4534 20.015V40.9841C31.4534 41.511 31.0271 41.9372 30.5003 41.9372Z" fill="#E6BE94"/>
<path d="M33.3597 31.4527H27.6408C27.114 31.4527 26.6877 31.0264 26.6877 30.4995C26.6877 29.9727 27.114 29.5464 27.6408 29.5464H33.3597C33.8865 29.5464 34.3128 29.9727 34.3128 30.4995C34.3128 31.0264 33.8865 31.4527 33.3597 31.4527Z" fill="#FFEBB7"/>
<path d="M33.3597 27.6401H27.6408C27.114 27.6401 26.6877 27.2138 26.6877 26.687C26.6877 26.1601 27.114 25.7338 27.6408 25.7338H33.3597C33.8865 25.7338 34.3128 26.1601 34.3128 26.687C34.3128 27.2138 33.8865 27.6401 33.3597 27.6401Z" fill="#FFEBB7"/>
<path d="M33.3597 35.2653H27.6408C27.114 35.2653 26.6877 34.839 26.6877 34.3121C26.6877 33.7853 27.114 33.359 27.6408 33.359H33.3597C33.8865 33.359 34.3128 33.7853 34.3128 34.3121C34.3128 34.839 33.8865 35.2653 33.3597 35.2653Z" fill="#FFEBB7"/>
<path d="M33.3597 23.8275H27.6408C27.114 23.8275 26.6877 23.4013 26.6877 22.8744C26.6877 22.3476 27.114 21.9213 27.6408 21.9213H33.3597C33.8865 21.9213 34.3128 22.3476 34.3128 22.8744C34.3128 23.4013 33.8865 23.8275 33.3597 23.8275Z" fill="#FFEBB7"/>
<path d="M33.3597 39.0778H27.6408C27.114 39.0778 26.6877 38.6516 26.6877 38.1247C26.6877 37.5979 27.114 37.1716 27.6408 37.1716H33.3597C33.8865 37.1716 34.3128 37.5979 34.3128 38.1247C34.3128 38.6516 33.8865 39.0778 33.3597 39.0778Z" fill="#FFEBB7"/>
<path d="M15.7099 45.7498H45.2908C44.695 47.0604 44.0237 48.3327 43.2799 49.5624H17.7211C16.9771 48.3327 16.3055 47.0605 15.7099 45.7498Z" fill="#FFEBB7"/>
<path d="M15.7099 15.2493H45.2908C44.695 13.9388 44.0237 12.6664 43.2799 11.4368H17.7211C16.9771 12.6664 16.3055 13.9388 15.7099 15.2493Z" fill="#FFEBB7"/>
<path d="M30.4742 45.7498H15.7099C16.3056 47.0604 16.9771 48.3327 17.7211 49.5624H30.4742V45.7498Z" fill="#E6BE94"/>
<path d="M30.4742 11.4368H17.7211C16.9771 12.6664 16.3056 13.9388 15.7099 15.2493H30.4742V11.4368Z" fill="#E6BE94"/>
</g>
<defs>
<clipPath id="clip0">
<rect width="61" height="61" fill="white"/>
</clipPath>
</defs>
</svg>
