<svg width="61" height="61" viewBox="0 0 61 61" fill="none" xmlns="http://www.w3.org/2000/svg">
<g clip-path="url(#clip0)">
<path d="M61 30.4621V48.692C61 51.9576 58.3528 54.6049 55.0872 54.6049C54.4196 54.6049 53.7703 54.4926 53.1611 54.2826L50.9326 51.8262L44.0225 35.2656L61 30.4621Z" fill="#DAD8DB"/>
<path d="M1.39001 23.121V48.6922L1.96725 53.096C3.01378 54.0342 4.39665 54.6049 5.91283 54.6049C8.29183 54.6049 10.4391 53.1791 11.3622 50.9866L16.8812 37.8791L1.39001 23.121Z" fill="#DAD8DB"/>
<path d="M61 23.121L43.2904 35.9113L49.6378 50.9865C50.3001 52.5596 51.6053 53.7416 53.1615 54.2818L47.0124 39.6822C46.6519 38.8259 47.2806 37.8791 48.2097 37.8791C52.2619 37.8791 56.0407 36.2699 58.8498 33.3479C59.6973 32.4663 60.4056 31.4926 60.9999 30.4622V23.121H61Z" fill="#C8C5C9"/>
<path d="M0 23.121V48.6922C0 50.4396 0.7625 52.013 1.96773 53.0955V38.9527C1.96773 37.9203 2.50934 36.9637 3.39455 36.4326C4.26786 35.9086 5.34096 35.8925 6.2525 36.3465C8.25657 37.3445 10.4763 37.879 12.7903 37.879H16.8812L17.7097 35.9113L0 23.121Z" fill="#C8C5C9"/>
<path d="M51.5741 6.73558C50.4874 6.51279 49.3624 6.39508 48.2098 6.39508C47.0572 6.39508 45.9322 6.51279 44.8455 6.73558C43.9358 6.92216 43.2905 7.73791 43.2905 8.6665V13.2821H53.1293V8.6665C53.129 7.73791 52.4837 6.92216 51.5741 6.73558Z" fill="#DAD8DB"/>
<path d="M16.1546 6.73558C15.068 6.51279 13.9429 6.39508 12.7903 6.39508C11.6378 6.39508 10.5127 6.51279 9.42606 6.73558C8.5163 6.92216 7.87103 7.73791 7.87103 8.6665V13.2821H17.7098V8.6665C17.7097 7.73791 17.0644 6.92216 16.1546 6.73558Z" fill="#DAD8DB"/>
<path d="M48.9587 10.352C45.8066 10.1721 42.8861 11.1359 40.5697 12.8646C40.2193 13.1262 39.8025 13.2821 39.3651 13.2821H21.6349C21.1976 13.2821 20.7809 13.1262 20.4305 12.8646C18.1138 11.1357 15.1928 10.1718 12.0406 10.352C7.76499 10.5962 4.00623 13.0274 1.86968 16.5161C0.767387 18.3159 0.444278 20.3971 0.357424 22.6048C0.0702954 29.9037 5.55517 35.0273 12.7903 35.0273H48.2097L55.0294 33.9434C58.7522 31.5926 61.1778 27.374 60.9898 22.6038C60.7342 16.1169 55.4401 10.7219 48.9587 10.352Z" fill="#ECEAEC"/>
<path d="M13.7742 33.9436C6.53904 33.9436 0.706992 27.936 0.994002 20.637C1.05071 19.1955 1.35822 17.807 1.87028 16.5166C0.768111 18.3163 0.0969923 20.3971 0.010258 22.6047C-0.276871 29.9037 5.55518 35.9112 12.7904 35.9112H48.2097C50.7082 35.9112 53.0599 35.182 55.0294 33.9434H13.7742V33.9436Z" fill="#DAD8DB"/>
<path d="M12.7903 29.0243C16.0506 29.0243 18.6935 26.3813 18.6935 23.1211C18.6935 19.8608 16.0506 17.2179 12.7903 17.2179C9.53009 17.2179 6.88715 19.8608 6.88715 23.1211C6.88715 26.3813 9.53009 29.0243 12.7903 29.0243Z" fill="white"/>
<path d="M12.7904 30.992C13.8771 30.992 14.7581 30.111 14.7581 29.0243C14.7581 27.9375 13.8771 27.0565 12.7904 27.0565C11.7036 27.0565 10.8226 27.9375 10.8226 29.0243C10.8226 30.111 11.7036 30.992 12.7904 30.992Z" fill="#E5646E"/>
<path d="M12.7904 19.1855C13.8771 19.1855 14.7581 18.3045 14.7581 17.2177C14.7581 16.131 13.8771 15.25 12.7904 15.25C11.7036 15.25 10.8226 16.131 10.8226 17.2177C10.8226 18.3045 11.7036 19.1855 12.7904 19.1855Z" fill="#FFC269"/>
<path d="M6.88704 25.0887C7.97378 25.0887 8.85476 24.2077 8.85476 23.121C8.85476 22.0342 7.97378 21.1533 6.88704 21.1533C5.80029 21.1533 4.91931 22.0342 4.91931 23.121C4.91931 24.2077 5.80029 25.0887 6.88704 25.0887Z" fill="#A4CCFF"/>
<path d="M18.6935 25.0887C19.7803 25.0887 20.6613 24.2077 20.6613 23.121C20.6613 22.0342 19.7803 21.1533 18.6935 21.1533C17.6068 21.1533 16.7258 22.0342 16.7258 23.121C16.7258 24.2077 17.6068 25.0887 18.6935 25.0887Z" fill="#B3E59F"/>
<path d="M54.113 21.1532H51.1614C50.618 21.1532 50.1775 20.7127 50.1775 20.1693V17.2178C50.1775 16.6744 49.7371 16.2339 49.1937 16.2339H47.2259C46.6825 16.2339 46.2421 16.6744 46.2421 17.2178V20.1693C46.2421 20.7127 45.8016 21.1532 45.2582 21.1532H42.3066C41.7632 21.1532 41.3228 21.5937 41.3228 22.1371V23.1209C41.3228 23.6643 41.7632 24.1048 42.3066 24.1048H46.2421C46.7855 24.1048 47.2259 24.5453 47.2259 25.0887V29.0241C47.2259 29.5675 47.6664 30.008 48.2098 30.008H49.1937C49.7371 30.008 50.1775 29.5675 50.1775 29.0241V26.0725C50.1775 25.5291 50.618 25.0887 51.1614 25.0887H54.113C54.6564 25.0887 55.0968 24.6482 55.0968 24.1048V22.1371C55.0968 21.5938 54.6563 21.1532 54.113 21.1532Z" fill="#B3E59F"/>
<path d="M32.4677 21.1532H28.5323L27.8044 23.4112L32.4677 24.3643C33.5545 24.3643 34.4355 24.2077 34.4355 23.1209C34.4355 22.0341 33.5545 21.1532 32.4677 21.1532Z" fill="#A4CCFF"/>
<path d="M41.3226 24.1049C41.3226 24.6483 41.7631 25.0888 42.3065 25.0888H45.2581C45.8015 25.0888 46.2419 25.5292 46.2419 26.0726V29.0242C46.2419 29.5676 46.6824 30.0081 47.2258 30.0081H48.2096V26.0726C48.2096 24.4425 46.8881 23.121 45.2581 23.121H41.3226V24.1049Z" fill="#95D6A4"/>
<path d="M28.5323 21.1532C27.4456 21.1532 26.5645 22.0341 26.5645 23.1209C26.5645 24.2076 27.4456 25.0886 28.5323 25.0886H32.4677C33.5544 25.0886 34.4354 24.2076 34.4354 23.1209H30.5C29.4133 23.121 28.5323 22.24 28.5323 21.1532Z" fill="#8BB3EA"/>
<path d="M41.3226 34.4355C41.3226 35.0065 41.1836 35.5451 40.9376 36.0193C40.3643 37.1241 39.2098 37.7179 37.8791 37.7179C35.9773 37.7179 34.8587 36.3373 34.8587 34.4355C34.8587 33.1044 35.1908 31.9497 36.2961 31.3765C36.77 31.1307 37.3083 30.9919 37.8791 30.9919C39.7808 30.9919 41.3226 32.5336 41.3226 34.4355Z" fill="#857E87"/>
<path d="M39.3549 36.4032C37.4531 36.4032 35.9114 34.8614 35.9114 32.9597C35.9114 32.3902 36.0515 31.8499 36.2962 31.3768C35.1892 31.9494 34.4356 33.1032 34.4356 34.4355C34.4356 36.3373 35.9774 37.879 37.8791 37.879C39.2115 37.879 40.365 37.1264 40.9376 36.0193C40.4644 36.264 39.9243 36.4032 39.3549 36.4032Z" fill="#6F6571"/>
<path d="M26.5645 34.4355C26.5645 35.0065 26.4255 35.5451 26.1795 36.0193C25.6062 37.1241 24.4517 37.7179 23.121 37.7179C21.2192 37.7179 20.1006 36.3373 20.1006 34.4355C20.1006 33.1044 20.4327 31.9497 21.538 31.3765C22.0119 31.1307 22.5502 30.9919 23.121 30.9919C25.0227 30.9919 26.5645 32.5336 26.5645 34.4355Z" fill="#857E87"/>
<path d="M24.5968 36.4032C22.695 36.4032 21.1533 34.8614 21.1533 32.9597C21.1533 32.3902 21.2934 31.8499 21.5381 31.3768C20.4311 31.9494 19.6775 33.1032 19.6775 34.4355C19.6775 36.3373 21.2193 37.879 23.121 37.879C24.4534 37.879 25.6069 37.1264 26.1795 36.0193C25.7063 36.264 25.1662 36.4032 24.5968 36.4032Z" fill="#6F6571"/>
</g>
<defs>
<clipPath id="clip0">
<rect width="61" height="61" fill="white"/>
</clipPath>
</defs>
</svg>
