<svg width="59" height="61" viewBox="0 0 59 61" fill="none" xmlns="http://www.w3.org/2000/svg">
<g clip-path="url(#clip0)">
<path d="M47.6631 11.9082C47.2132 10.8979 47.4778 9.43713 46.8354 8.52773C46.2045 7.63441 44.775 7.44236 43.9799 6.66544C43.2046 5.90783 42.9473 4.44347 42.0359 3.81417C41.7325 3.6046 41.3677 3.50309 40.9792 3.44102C40.9792 3.44102 39.414 3.49535 38.7585 3.18332C38.7038 3.15723 38.5823 2.9498 38.5823 2.9498C37.6979 2.43011 37.0325 1.24681 36.0376 0.948598C35.0154 0.642287 33.7578 1.3669 32.669 1.20999C31.6159 1.05809 30.6012 0 29.5 0C28.3988 0 27.3841 1.05809 26.3313 1.20987C25.7616 1.29208 25.1455 1.13255 24.5414 1.00602L22.0962 1.89136C21.0994 2.36578 19.3959 4.7493 18.5095 5.36133C17.5978 5.99087 16.2937 6.82747 15.5183 7.58533C14.7232 8.36236 13.4219 8.20116 12.791 9.09448C12.1488 10.004 12.7416 11.023 12.2917 12.0333C11.9893 12.7123 12.1882 13.1498 11.7155 13.7743H49.0925C48.6196 13.1492 47.9657 12.5877 47.6631 11.9082Z" fill="#FFE09F"/>
<path d="M20.6628 12.8752C20.6628 8.41143 22.1188 4.30751 24.5413 1.006C23.9914 0.890795 23.4493 0.80275 22.9624 0.948698C21.9075 1.26478 21.2236 2.57616 20.2561 3.03676C19.2593 3.51117 17.8501 3.20248 16.9638 3.81451C16.052 4.44405 15.7946 5.90876 15.0191 6.66661C14.2239 7.44365 12.7947 7.63582 12.1638 8.52914C11.5215 9.43866 11.7863 10.8992 11.3364 11.9095C11.034 12.5885 10.3807 13.1498 9.90796 13.7743H20.7067C20.6935 13.4741 20.6628 13.1786 20.6628 12.8752Z" fill="#F6D190"/>
<path d="M17.7461 13.7742L20.0124 59.9278H44.8019L45.8361 59.0323L49.4838 13.7742H17.7461Z" fill="#FFF5D7"/>
<path d="M20.8239 56.2094L19.0323 13.7742H13.9146L17.6483 60.0979L18.7151 61H24.1075L26.6576 60.2057L29.5 61H34.8925L37.5808 60.2703L40.2849 61H44.8019C45.2968 61 45.7091 60.6078 45.7501 60.0979L45.8361 59.0323H23.6759C22.1477 59.0323 20.8905 57.788 20.8239 56.2094Z" fill="#F9EAC7"/>
<path d="M29.5 13.7742H22.8388L24.0546 59.0323L26.9649 59.8682L29.5 59.0323V13.7742Z" fill="#FF8086"/>
<path d="M40.3929 59.0323L37.8833 59.749L34.9454 59.0323L36.1612 13.7742L42.8226 14.7581L40.3929 59.0323Z" fill="#FF8086"/>
<path d="M9.51617 13.7742L13.2499 60.0979C13.291 60.6078 13.7032 61.0001 14.1981 61.0001H18.7151L16.1774 13.7744H9.51617V13.7742Z" fill="#E5646E"/>
<path d="M27.03 10.3898C26.1397 10.3898 25.3033 10.0314 24.6751 9.38045C24.046 8.7309 23.6993 7.86617 23.6993 6.94629C23.6993 6.0264 24.046 5.16156 24.6751 4.51105C25.0469 4.12766 25.6491 4.12718 26.0207 4.51153C26.3925 4.89588 26.3925 5.51898 26.0207 5.90321C25.7512 6.18141 25.6026 6.55229 25.6026 6.94617C25.6026 7.34005 25.7512 7.71093 26.0207 7.98913C26.5597 8.54837 27.5002 8.54682 28.0392 7.9896C28.4109 7.60526 29.0131 7.60526 29.3848 7.9896C29.7564 8.37395 29.7565 8.99658 29.3848 9.38081C28.7556 10.0314 27.9192 10.3898 27.03 10.3898Z" fill="#F6D190"/>
<path d="M16.1431 14.6869C15.7639 14.6869 15.4061 14.451 15.2584 14.0643C14.5828 12.2992 15.4219 10.2946 17.1291 9.59556C17.6161 9.39719 18.1708 9.64167 18.3642 10.148C18.5575 10.6529 18.3187 11.225 17.8299 11.425C17.0985 11.7247 16.7388 12.5842 17.0278 13.3409C17.2211 13.8458 16.9823 14.4174 16.4935 14.6173C16.3781 14.6644 16.2601 14.6869 16.1431 14.6869Z" fill="#FFE09F"/>
<path d="M32.2219 14.7484C31.7406 14.7484 31.327 14.3723 31.2768 13.8664C31.2219 13.326 31.6011 12.8421 32.1243 12.7859C32.9067 12.7018 33.4774 11.9746 33.3956 11.1645C33.3416 10.6241 33.7218 10.1407 34.244 10.0845C34.7756 10.0221 35.2347 10.4208 35.2896 10.9617C35.4791 12.8498 34.1475 14.5466 32.3214 14.743C32.2879 14.7465 32.2544 14.7484 32.2219 14.7484Z" fill="#FFF0AF"/>
<path d="M51.387 14.7581H7.61295C7.08691 14.7581 6.66135 14.3175 6.66135 13.7742C6.66135 13.2309 7.08702 12.7903 7.61295 12.7903H51.3872C51.9132 12.7903 52.3388 13.2309 52.3388 13.7742C52.3388 14.3175 51.9131 14.7581 51.387 14.7581Z" fill="#FFF5D7"/>
<path d="M29.5 51.1613C36.8579 51.1613 42.8226 44.9943 42.8226 37.3871C42.8226 29.7798 36.8579 23.6129 29.5 23.6129C22.1422 23.6129 16.1774 29.7798 16.1774 37.3871C16.1774 44.9943 22.1422 51.1613 29.5 51.1613Z" fill="#F9EAC7"/>
<path d="M29.5 49.1935C35.8067 49.1935 40.9194 43.9076 40.9194 37.387C40.9194 30.8665 35.8067 25.5806 29.5 25.5806C23.1932 25.5806 18.0806 30.8665 18.0806 37.387C18.0806 43.9076 23.1932 49.1935 29.5 49.1935Z" fill="#FFF5D7"/>
<path d="M36.3442 34.6573H31.5709L30.0959 29.9636C29.9084 29.3669 29.0918 29.3669 28.9042 29.9636L27.4292 34.6573L26.792 36.2485L33.3892 43.9704C33.6325 44.1532 34.0929 44.1515 34.0929 44.1515C34.2992 43.9997 34.4203 43.7244 34.3257 43.4234L32.8506 38.7298L36.7123 35.8289C37.2034 35.4602 36.9511 34.6573 36.3442 34.6573Z" fill="#FF8086"/>
<path d="M24.0546 59.0323L24.1075 61H29.5V59.0323H24.0546Z" fill="#E5646E"/>
<path d="M34.9454 59.0323L34.8925 61H40.2849L40.3929 59.0323H34.9454Z" fill="#E5646E"/>
<path d="M22.2867 35.8304L26.1484 38.7312L25.162 41.8701L24.6734 43.4249C24.4858 44.0217 25.1464 44.5178 25.6373 44.149L29.4991 41.2482L33.3608 44.149C33.6046 44.3321 33.89 44.3013 34.0928 44.1514L27.4282 34.6588H22.6548C22.048 34.6586 21.7958 35.4615 22.2867 35.8304Z" fill="#E5646E"/>
<path d="M37.8033 7.86903C38.6564 7.86903 39.5095 7.53364 40.1592 6.86205C41.0532 5.9374 41.3163 4.61351 40.9791 3.44057C40.2322 3.32095 39.3994 3.34871 38.7434 3.03644C38.6878 3.00999 38.636 2.98152 38.5821 2.94971C38.6238 3.11114 38.6908 3.25721 38.8135 3.38386C39.3692 3.95942 39.3692 4.89516 38.8135 5.47072C38.2745 6.02842 37.333 6.02747 36.7941 5.47072C36.4223 5.08638 35.8201 5.08638 35.4485 5.47072C35.0767 5.85507 35.0767 6.4777 35.4485 6.86193C36.0981 7.53376 36.9511 7.86903 37.8033 7.86903Z" fill="#FFF0AF"/>
</g>
<defs>
<clipPath id="clip0">
<rect width="59" height="61" fill="white"/>
</clipPath>
</defs>
</svg>
